<?xml version="1.0" encoding="utf-8"?>
<!-- Generator: Adobe Illustrator 22.0.0, SVG Export Plug-In . SVG Version: 6.00 Build 0)  -->
<svg version="1.1" id="Layer_1" xmlns="http://www.w3.org/2000/svg" xmlns:xlink="http://www.w3.org/1999/xlink" x="0px" y="0px"
	 width="230.1px" height="61.6px" viewBox="0 0 230.1 61.6" enable-background="new 0 0 230.1 61.6" xml:space="preserve">
<g>
	<path fill="#79726F" d="M158.6,40.9c0,7.5-4.6,12.1-11.8,12.1c-5.4,0-9.3-2.6-11-6.7c-0.6-1.6-0.1-2.6,1.7-2.6h1.3
		c1.6,0,2.1,0.2,3.2,1.7c0.9,1.3,2.3,2.4,4.8,2.4c3.8,0,5.6-2.4,5.6-6.3v-6.3c-0.5,2.3-2.7,5.7-7.7,5.7c-6.2,0-9.8-4.5-9.8-11.3
		v-8.7c0-6.8,3.8-11,9.6-11c5.5,0,7.6,3.4,7.9,5.1v-2.1c0-2,0.6-2.6,2.6-2.7h0.8c2.1,0,2.7,0.7,2.7,2.7V40.9z M152.3,21.1
		c0-3.6-2.1-6.1-5.8-6.1c-3.4,0-5.4,2.3-5.4,6.3v7.8c0,4.1,2.1,6.3,5.5,6.3c3.8,0,5.7-2.7,5.7-6.7V21.1z"/>
</g>
<path fill="#79726F" d="M168.9,17c0.8-4.8,4.2-7.1,7.5-7.1c1.2,0,1.9,0.5,1.9,2.1v2.1c0,1.8-0.7,2-1.8,2h-1c-4,0-6.6,2.9-6.6,7.8
	v15.9c0,2.1-0.7,2.7-2.7,2.7h-0.8c-2.1,0-2.7-0.7-2.7-2.7v-27c0-2,0.6-2.7,2.7-2.7h0.8c2.1,0,2.7,0.7,2.7,2.7V17z"/>
<path fill="#79726F" d="M196.3,20.9c0-3.8-1.8-5.8-5.4-5.8c-2.9,0-4.2,1.3-4.9,2.9c-0.5,1.3-0.9,1.6-2.6,1.6h-1.6
	c-1.8,0-2.4-0.9-1.9-2.7c1.2-4.1,4.9-7.3,10.9-7.3c6.9,0,11.6,3.8,11.6,11.8v18.4c0,2-0.7,2.7-2.7,2.7h-0.4c-2,0-2.7-0.7-2.7-2.7
	v-2.4c-0.4,2-2.7,5.4-8,5.4c-6.6,0-10-4.3-10-9.5c0-5.7,4.5-9.6,11-9.6h6.8V20.9z M191,28.6c-4.6,0-6.1,2.1-6.1,4.7
	c0,2.6,1.7,4.5,5,4.5c4.3,0,6.6-3.4,6.6-7.3v-2H191z"/>
<path fill="#79726F" d="M223.9,37c-0.2,2.1-2.4,5.9-7.4,5.9c-6.2,0-9.9-4-9.9-11V20.8c0-7,3.8-11,9.6-11c5.4,0,7.3,3.2,7.7,5.8V2.7
	c0-2,0.7-2.7,2.7-2.7h0.8c2.1,0,2.7,0.7,2.7,2.7v37.1c0,2.1-0.6,2.7-2.7,2.7h-0.8c-2.1,0-2.7-0.7-2.7-2.7V37z M212.8,31.3
	c0,4.1,2.1,6.1,5.3,6.1c3.5,0,5.7-2.7,5.7-7v-8.4c0-4.1-1.6-6.8-5.7-6.8c-3.4,0-5.3,2.2-5.3,6.1V31.3z"/>
<g>
	<path fill="#79726F" d="M114,12.8c-0.5-2.1-1.3-2.7-3.4-2.7h-1c-2,0-2.6,0.7-2.1,2.7l9,25.8c0.3,1,0.6,1.6,1,2.1
		c0.9-2.9,1.9-5.9,2.8-8.8C117.8,24.2,114,12.8,114,12.8z"/>
	<path fill="#F68D45" d="M127.4,9.5c-2.4,7.4-13.8,43.3-15.7,49.4c-0.8,2.5,5.8,3.9,6.6,1.3c5.2-16.5,10.5-32.9,15.7-49.4
		C134.8,8.4,128.2,6.9,127.4,9.5z"/>
</g>
<path fill="#79726F" d="M98.4,37c-0.2,2.1-2.4,5.9-7.4,5.9c-6.2,0-9.9-4-9.9-11V20.8c0-7,3.8-11,9.6-11c5.4,0,7.3,3.2,7.7,5.8V2.7
	c0-2,0.7-2.7,2.7-2.7h0.8c2.1,0,2.7,0.7,2.7,2.7v37.1c0,2.1-0.6,2.7-2.7,2.7h-0.8c-2.1,0-2.7-0.7-2.7-2.7V37z M87.3,31.3
	c0,4.1,2.1,6.1,5.3,6.1c3.5,0,5.7-2.7,5.7-7v-8.4c0-4.1-1.6-6.8-5.7-6.8c-3.4,0-5.3,2.2-5.3,6.1V31.3z"/>
<path fill="#79726F" d="M70.9,20.9c0-3.8-1.8-5.8-5.4-5.8c-2.9,0-4.2,1.3-4.9,2.9c-0.5,1.3-0.9,1.6-2.6,1.6h-1.6
	c-1.8,0-2.4-0.9-1.9-2.7c1.2-4.1,4.9-7.3,10.9-7.3c6.9,0,11.6,3.8,11.6,11.8v18.4c0,2-0.7,2.7-2.7,2.7h-0.4c-2,0-2.7-0.7-2.7-2.7
	v-2.4c-0.4,2-2.7,5.4-8,5.4c-6.6,0-10-4.3-10-9.5c0-5.7,4.5-9.6,11-9.6h6.8V20.9z M65.5,28.6c-4.6,0-6.1,2.1-6.1,4.7
	c0,2.6,1.7,4.5,5,4.5c4.3,0,6.6-3.4,6.6-7.3v-2H65.5z"/>
<path fill="#79726F" d="M33.4,31.7c0,3.5,1.8,5.8,6,5.8c3.1,0,4.6-1.5,5.2-3.4c0.5-1.6,1-2,2.7-2h1c1.8,0,2.6,0.9,2.1,2.9
	c-1.1,4.5-4.9,7.9-11.3,7.9c-7.2,0-11.7-4.6-11.7-11.5v-10c0-7,4.5-11.5,11.7-11.5c7.2,0,11.7,4.5,11.7,11.5v4
	c0,2.3-0.6,2.9-2.4,2.9h-15V31.7z M44.8,20.9c0-3.5-1.8-5.8-5.7-5.8c-3.8,0-5.7,2.3-5.7,5.8v2.5h11.3V20.9z"/>
<path fill="#79726F" d="M25,39.9l-6.6-14.1c3.7-1.6,6-5.2,6-10.4v-1.9c0-7.4-4.5-11.8-12.6-11.8H3c-2.3,0-3,0.7-3,3v35
	c0,2.1,0.7,2.7,2.7,2.7h1c2,0,2.6-0.7,2.6-2.7V7.6h5.4c4.3,0,6.3,2,6.3,5.9v2c0,3.8-1.9,5.8-5.9,6h-0.9c-2,0-2.7,0.7-2.7,2.7v0.4
	c0,2.1,0.7,2.7,2.7,2.7h0.9l5.6,12.6c0.9,2.1,1.6,2.7,3.9,2.7h1.6C25.1,42.6,25.9,41.7,25,39.9"/>
</svg>
