<?xml version="1.0" standalone="no"?>
<!DOCTYPE svg PUBLIC "-//W3C//DTD SVG 20010904//EN"
 "http://www.w3.org/TR/2001/REC-SVG-20010904/DTD/svg10.dtd">
<svg version="1.0" xmlns="http://www.w3.org/2000/svg"
 width="3840.000000pt" height="3840.000000pt" viewBox="0 0 3840.000000 3840.000000"
 preserveAspectRatio="xMidYMid meet">
<metadata>
Created by potrace 1.11, written by Peter Selinger 2001-2013
</metadata>
<g transform="translate(0.000000,3840.000000) scale(0.100000,-0.100000)"
fill="#000000" stroke="none">
<path d="M0 19200 l0 -19200 19200 0 19200 0 0 19200 0 19200 -19200 0 -19200
0 0 -19200z m12000 6600 l0 -600 600 0 600 0 0 -600 0 -600 600 0 600 0 0
-600 0 -600 600 0 600 0 0 -600 0 -600 600 0 600 0 0 -600 0 -600 600 0 600 0
0 -600 0 -600 600 0 600 0 0 -600 0 -600 -600 0 -600 0 0 -600 0 -600 -600 0
-600 0 0 -600 0 -600 -600 0 -600 0 0 -600 0 -600 -600 0 -600 0 0 -600 0
-600 -600 0 -600 0 0 -600 0 -600 -600 0 -600 0 0 -600 0 -600 -3000 0 -3000
0 0 600 0 600 600 0 600 0 0 600 0 600 600 0 600 0 0 600 0 600 600 0 600 0 0
600 0 600 600 0 600 0 0 600 0 600 600 0 600 0 0 600 0 600 600 0 600 0 0 600
0 600 -600 0 -600 0 0 600 0 600 -600 0 -600 0 0 600 0 600 -600 0 -600 0 0
600 0 600 -600 0 -600 0 0 600 0 600 -600 0 -600 0 0 600 0 600 -600 0 -600 0
0 600 0 600 3000 0 3000 0 0 -600z m21600 -13800 l0 -1200 -7200 0 -7200 0 0
1200 0 1200 7200 0 7200 0 0 -1200z"/>
</g>
</svg>
