<?xml version="1.0" standalone="no"?>
<!DOCTYPE svg PUBLIC "-//W3C//DTD SVG 20010904//EN"
 "http://www.w3.org/TR/2001/REC-SVG-20010904/DTD/svg10.dtd">
<svg version="1.0" xmlns="http://www.w3.org/2000/svg"
 width="768.000000pt" height="768.000000pt" viewBox="0 0 768.000000 768.000000"
 preserveAspectRatio="xMidYMid meet">
<metadata>
Created by potrace 1.11, written by Peter Selinger 2001-2013
</metadata>
<g transform="translate(0.000000,768.000000) scale(0.100000,-0.100000)"
fill="#000000" stroke="none">
<path d="M0 3840 l0 -3840 3840 0 3840 0 0 3840 0 3840 -3840 0 -3840 0 0
-3840z m2420 1340 l0 -120 120 0 120 0 0 -120 0 -120 120 0 120 0 0 -120 0
-120 120 0 120 0 0 -120 0 -120 120 0 120 0 0 -120 0 -120 120 0 120 0 0 -120
0 -120 120 0 120 0 0 -140 0 -140 -120 0 -120 0 0 -120 0 -120 -120 0 -120 0
0 -120 0 -120 -120 0 -120 0 0 -120 0 -120 -120 0 -120 0 0 -120 0 -120 -120
0 -120 0 0 -120 0 -120 -120 0 -120 0 0 -120 0 -120 -620 0 -620 0 0 140 0
140 120 0 120 0 0 120 0 120 120 0 120 0 0 120 0 120 120 0 120 0 0 120 0 120
120 0 120 0 0 120 0 120 120 0 120 0 0 120 0 120 120 0 120 0 0 100 0 100
-120 0 -120 0 0 120 0 120 -120 0 -120 0 0 120 0 120 -120 0 -120 0 0 120 0
120 -120 0 -120 0 0 120 0 120 -120 0 -120 0 0 120 0 120 -120 0 -120 0 0 140
0 140 620 0 620 0 0 -120z m4320 -2780 l0 -260 -1460 0 -1460 0 0 260 0 260
1460 0 1460 0 0 -260z"/>
</g>
</svg>
